<svg data-v-423bf9ae="" xmlns="http://www.w3.org/2000/svg" viewBox="0 0 120.78469162837098 186" class="iconAboveSlogan"><!----><!----><!----><g data-v-423bf9ae="" id="70949f5e-3fb7-4e13-9e20-41971c051878" fill="#000058" transform="matrix(6.036216979508284,0,0,6.036216979508284,-6.760564266015919,83.50302237891665)"><path d="M4.35 13.17L4.35 13.17L4.35 13.17Q3.56 13.17 2.77 13.13L2.77 13.13L2.77 13.13Q1.97 13.08 1.12 12.89L1.12 12.89L1.12 3.49L1.12 3.49Q1.79 3.36 2.59 3.30L2.59 3.30L2.59 3.30Q3.39 3.23 4.07 3.23L4.07 3.23L4.07 3.23Q5.00 3.23 5.78 3.37L5.78 3.37L5.78 3.37Q6.55 3.50 7.11 3.82L7.11 3.82L7.11 3.82Q7.67 4.14 7.99 4.67L7.99 4.67L7.99 4.67Q8.30 5.19 8.30 5.96L8.30 5.96L8.30 5.96Q8.30 7.13 7.18 7.80L7.18 7.80L7.18 7.80Q8.11 8.15 8.44 8.75L8.44 8.75L8.44 8.75Q8.78 9.35 8.78 10.11L8.78 10.11L8.78 10.11Q8.78 11.63 7.67 12.40L7.67 12.40L7.67 12.40Q6.55 13.17 4.35 13.17ZM4.62 8.82L3.25 8.82L3.25 11.33L3.25 11.33Q3.49 11.35 3.77 11.37L3.77 11.37L3.77 11.37Q4.05 11.38 4.38 11.38L4.38 11.38L4.38 11.38Q5.36 11.38 5.96 11.10L5.96 11.10L5.96 11.10Q6.57 10.82 6.57 10.07L6.57 10.07L6.57 10.07Q6.57 9.39 6.06 9.11L6.06 9.11L6.06 9.11Q5.56 8.82 4.62 8.82L4.62 8.82ZM3.25 5.04L3.25 7.15L4.31 7.15L4.31 7.15Q5.32 7.15 5.75 6.89L5.75 6.89L5.75 6.89Q6.19 6.64 6.19 6.06L6.19 6.06L6.19 6.06Q6.19 5.47 5.74 5.24L5.74 5.24L5.74 5.24Q5.29 5.00 4.42 5.00L4.42 5.00L4.42 5.00Q4.14 5.00 3.82 5.00L3.82 5.00L3.82 5.00Q3.50 5.01 3.25 5.04L3.25 5.04ZM11.02 3.35L13.10 3.35L13.10 3.35Q13.36 3.81 13.68 4.49L13.68 4.49L13.68 4.49Q14.01 5.17 14.37 5.96L14.37 5.96L14.37 5.96Q14.73 6.75 15.08 7.57L15.08 7.57L15.08 7.57Q15.43 8.40 15.74 9.13L15.74 9.13L15.74 9.13Q16.04 8.40 16.39 7.57L16.39 7.57L16.39 7.57Q16.74 6.75 17.10 5.96L17.10 5.96L17.10 5.96Q17.46 5.17 17.79 4.49L17.79 4.49L17.79 4.49Q18.12 3.81 18.37 3.35L18.37 3.35L20.36 3.35L20.36 3.35Q20.50 4.31 20.62 5.51L20.62 5.51L20.62 5.51Q20.73 6.71 20.82 8.00L20.82 8.00L20.82 8.00Q20.92 9.30 20.99 10.60L20.99 10.60L20.99 10.60Q21.07 11.90 21.13 13.05L21.13 13.05L19.00 13.05L19.00 13.05Q18.96 11.63 18.89 9.97L18.89 9.97L18.89 9.97Q18.82 8.30 18.68 6.61L18.68 6.61L18.68 6.61Q18.42 7.20 18.12 7.91L18.12 7.91L18.12 7.91Q17.81 8.62 17.51 9.34L17.51 9.34L17.51 9.34Q17.21 10.05 16.93 10.70L16.93 10.70L16.93 10.70Q16.65 11.35 16.45 11.82L16.45 11.82L14.92 11.82L14.92 11.82Q14.73 11.35 14.45 10.70L14.45 10.70L14.45 10.70Q14.17 10.05 13.87 9.34L13.87 9.34L13.87 9.34Q13.57 8.62 13.26 7.91L13.26 7.91L13.26 7.91Q12.95 7.20 12.70 6.61L12.70 6.61L12.70 6.61Q12.56 8.30 12.49 9.97L12.49 9.97L12.49 9.97Q12.42 11.63 12.38 13.05L12.38 13.05L10.25 13.05L10.25 13.05Q10.30 11.90 10.38 10.60L10.38 10.60L10.38 10.60Q10.46 9.30 10.55 8.00L10.55 8.00L10.55 8.00Q10.64 6.71 10.76 5.51L10.76 5.51L10.76 5.51Q10.88 4.31 11.02 3.35L11.02 3.35Z"></path></g><!----><g data-v-423bf9ae="" id="a29059f5-b684-4265-a45d-a90e0d600d4d" transform="matrix(1.3377329909227011,0,0,1.3377329909227011,0.43868103559680804,-14.83664666093047)" stroke="none" fill="#ff6500"><path d="M65.488 65.37a3.24 3.24 0 0 1-3.243.518 3.256 3.256 0 0 1-1.24-.899 24.522 24.522 0 0 1-13.282 8.8c2.99-2.082 5.463-5.671 7.121-10.209h5.453c-.021-.096-.063-.182-.074-.279l-.285-2.165H55.63c.841-2.991 1.343-6.308 1.438-9.836h1.574l-.322-2.444h-1.252a44.145 44.145 0 0 0-.396-4.757c-.779.217-1.588.431-2.39.645.174 1.336.302 2.7.344 4.112h-8.61L45.52 51.3h9.105c-.104 3.541-.639 6.884-1.537 9.836H42.795v-5.401l-1.252.875c-.363.257-.772.399-1.192.486v4.04H30.058a34.681 34.681 0 0 1-1.047-4.6c-.267.108-.542.217-.804.329-.524.223-.992.445-1.49.668.219 1.238.477 2.451.798 3.603h-7.807v-.002a38.41 38.41 0 0 0-1.996 1.292 28.69 28.69 0 0 0-1.361 1.023c4.805 9.025 14.303 15.189 25.221 15.189 10.239 0 19.208-5.433 24.25-13.549l-.334.281zm-44.374-1.79h7.188c1.661 4.538 4.13 8.127 7.121 10.209A24.538 24.538 0 0 1 21.114 63.58zm19.237 9.686c-3.883-.645-7.27-4.322-9.421-9.686h9.421v9.686zm2.444-9.686h9.421c-2.149 5.361-5.54 9.041-9.421 9.686V63.58z"></path><path d="M87.363 24.459c-3.995-2.627-12.348-.773-21.615 2.803L49.466 11.36l-5.485.188L57.07 30.955c-5.385 2.476-10.719 5.232-15.396 7.779l-6.756-5.102-2.806.327 6.977 8.789.601 11.208 2.317-1.617 1.677-8.297c5.19-1.188 11.015-2.66 16.687-4.372l3.053 23.206 4.232-3.495 1.654-22.695c9.318-3.467 16.801-7.614 18.053-12.227z"></path><path d="M48.527 24.071l-1.348-1.999a28.669 28.669 0 0 0-5.61-.56c-14.262 0-26.082 10.519-28.192 24.199a86.52 86.52 0 0 1 5.021-3.501c.37-1.097.789-2.173 1.308-3.194h3.933a139.746 139.746 0 0 1 4.406-2.444h-6.933a24.535 24.535 0 0 1 14.31-10.209c-1.592 1.11-3.032 2.657-4.287 4.538.197-.063.393-.13.604-.153l2.806-.327.052-.001c1.697-1.917 3.647-3.184 5.752-3.532v6.794l1.615 1.221c.282-.151.549-.284.829-.435v-7.58c2.373.393 4.56 1.933 6.396 4.285l3.166-1.505-3.828-5.597z"></path><path d="M35.919 43.951l-4.397-5.538c-2.987 1.531-6.322 3.345-9.807 5.517-3.892 2.446-7.978 5.27-11.725 8.869-1.86 1.813-3.648 3.828-5.098 6.258-.717 1.217-1.339 2.549-1.767 3.991-.115.353-.192.733-.28 1.101-.047.183-.069.375-.104.563l-.102.681-.003.832.023 1.226c.107 1.477.501 3.049 1.285 4.42.766 1.383 1.916 2.446 3.06 3.128 2.327 1.363 4.509 1.586 6.388 1.697 3.773.115 6.669-.5 8.695-.902a80.261 80.261 0 0 0 1.612-.361c-5.88-.309-9.543-1.719-11.51-2.787a8.065 8.065 0 0 1-1.528-.977 5.157 5.157 0 0 1-.317-.263l.038-.003c-.121-.115-.262-.223-.364-.346-.886-1.059-.909-2.021-.595-3.401.054-.142.101-.271.14-.405l.239-.799.008-.023c.022-.125-.022.141-.016.106l.013-.028.022-.063.044-.121c.033-.079.051-.159.092-.242.079-.163.133-.326.228-.491a10.44 10.44 0 0 1 1.348-2.008c1.127-1.343 2.652-2.629 4.323-3.804 3.372-2.351 7.309-4.276 11.085-5.885 3.284-1.394 6.455-2.523 9.317-3.473l-.347-6.469z"></path></g><!----><g data-v-423bf9ae="" id="0c653166-ad57-4ad3-9737-b950ae9df4e3" fill="#000058" transform="matrix(1.071799741387313,0,0,1.071799741387313,15.645428854198968,199.8618935481712)"><path d="M0.84 6.97L0.84 5.88L7.73 5.88L7.73 6.97L4.87 6.97L4.87 15.68L3.70 15.68L3.70 6.97L0.84 6.97ZM22.92 12.15L22.92 15.68L21.74 15.68L21.74 12.40L21.74 12.40Q21.74 12.04 21.57 11.84L21.57 11.84L21.57 11.84Q21.41 11.65 20.99 11.65L20.99 11.65L17.93 11.65L17.93 15.68L16.76 15.68L16.76 5.88L20.26 5.88L20.26 5.88Q21.01 5.88 21.57 6.10L21.57 6.10L21.57 6.10Q22.13 6.31 22.50 6.68L22.50 6.68L22.50 6.68Q22.88 7.04 23.06 7.53L23.06 7.53L23.06 7.53Q23.25 8.01 23.25 8.54L23.25 8.54L23.25 8.96L23.25 8.96Q23.25 9.51 22.95 10.05L22.95 10.05L22.95 10.05Q22.65 10.60 22.02 10.89L22.02 10.89L22.02 11.06L22.02 11.06Q22.44 11.13 22.68 11.40L22.68 11.40L22.68 11.40Q22.92 11.66 22.92 12.15L22.92 12.15ZM17.93 6.97L17.93 10.56L20.12 10.56L20.12 10.56Q21.11 10.56 21.59 10.13L21.59 10.13L21.59 10.13Q22.08 9.70 22.08 8.88L22.08 8.88L22.08 8.62L22.08 8.62Q22.08 7.88 21.59 7.43L21.59 7.43L21.59 7.43Q21.11 6.97 20.12 6.97L20.12 6.97L17.93 6.97ZM38.23 15.68L37.52 13.24L33.32 13.24L32.61 15.68L31.35 15.68L34.31 5.88L36.53 5.88L39.49 15.68L38.23 15.68ZM35.50 6.38L35.34 6.38L33.64 12.15L37.20 12.15L35.50 6.38ZM49.85 15.68L47.08 5.88L48.34 5.88L50.90 15.18L51.07 15.18L53.63 5.88L54.89 5.88L52.12 15.68L49.85 15.68ZM63.59 15.68L63.59 5.88L69.52 5.88L69.52 6.97L64.76 6.97L64.76 10.22L69.44 10.22L69.44 11.31L64.76 11.31L64.76 14.59L69.61 14.59L69.61 15.68L63.59 15.68ZM79.06 15.68L79.06 5.88L80.23 5.88L80.23 14.59L85.36 14.59L85.36 15.68L79.06 15.68Z"></path></g></svg>