<svg data-v-423bf9ae="" xmlns="http://www.w3.org/2000/svg" viewBox="0 0 141.58004802275653 187" class="iconAboveSlogan"><!----><!----><!----><g data-v-423bf9ae="" id="d592ec59-0d7b-4271-bc3b-4ab82f47d7d3" fill="white" transform="matrix(6.23700631120257,0,0,6.23700631120257,-3.9916857810679716,42.438671818160245)"><path d="M8.37 16.67L8.37 16.67L8.37 16.67Q8.37 16.24 8.23 15.91L8.23 15.91L8.23 15.91Q8.10 15.59 7.84 15.37L7.84 15.37L7.84 15.37Q7.57 15.16 7.26 15.02L7.26 15.02L7.26 15.02Q6.95 14.88 6.50 14.81L6.50 14.81L6.50 14.81Q5.70 14.69 4.71 14.69L4.71 14.69L3.17 14.69L3.17 17.34L3.17 17.34Q3.17 18.01 3.39 18.28L3.39 18.28L3.39 18.28Q3.62 18.55 4.25 18.55L4.25 18.55L5.38 18.55L5.38 18.55Q7.15 18.55 7.83 17.98L7.83 17.98L7.83 17.98Q8.37 17.53 8.37 16.67ZM0.67 10.46L0.67 10.46L0.67 10.46Q0.66 10.43 0.65 10.39L0.65 10.39L0.65 10.39Q0.64 10.34 0.64 10.21L0.64 10.21L0.64 10.21Q0.64 10.08 0.75 9.96L0.75 9.96L0.75 9.96Q0.85 9.83 1.12 9.78L1.12 9.78L1.12 9.78Q1.46 9.72 2.41 9.72L2.41 9.72L5.05 9.72L5.05 9.72Q9.18 9.72 9.18 12.10L9.18 12.10L9.18 12.10Q9.18 12.95 8.62 13.44L8.62 13.44L8.62 13.44Q8.16 13.85 7.41 14.17L7.41 14.17L7.41 14.17Q9.88 14.95 9.88 16.73L9.88 16.73L9.88 16.73Q9.88 17.46 9.52 17.98L9.52 17.98L9.52 17.98Q9.16 18.50 8.52 18.79L8.52 18.79L8.52 18.79Q7.31 19.33 5.46 19.33L5.46 19.33L2.41 19.32L2.41 19.32Q1.46 19.32 1.20 19.27L1.20 19.27L1.20 19.27Q0.66 19.13 0.64 18.70L0.64 18.70L0.64 18.70Q0.64 18.46 1.11 18.40L1.11 18.40L1.11 18.40Q1.33 18.37 1.40 18.33L1.40 18.33L1.40 18.33Q1.67 18.22 1.67 17.85L1.67 17.85L1.67 11.18L1.67 11.18Q1.67 10.69 1.16 10.62L1.16 10.62L1.16 10.62Q1.06 10.61 0.98 10.60L0.98 10.60L0.98 10.60Q0.90 10.59 0.84 10.58L0.84 10.58L0.84 10.58Q0.79 10.57 0.77 10.55L0.77 10.55L0.77 10.55Q0.75 10.54 0.71 10.52L0.71 10.52L0.71 10.52Q0.68 10.49 0.67 10.46ZM3.17 13.90L5.44 13.90L5.44 13.90Q7.10 13.90 7.61 13.07L7.61 13.07L7.61 13.07Q7.80 12.76 7.80 12.34L7.80 12.34L7.80 12.34Q7.80 11.93 7.66 11.62L7.66 11.62L7.66 11.62Q7.53 11.32 7.26 11.13L7.26 11.13L7.26 11.13Q6.99 10.94 6.69 10.81L6.69 10.81L6.69 10.81Q6.38 10.69 5.95 10.64L5.95 10.64L5.95 10.64Q5.22 10.53 4.47 10.53L4.47 10.53L4.47 10.53Q3.72 10.53 3.44 10.74L3.44 10.74L3.44 10.74Q3.17 10.95 3.17 11.52L3.17 11.52L3.17 13.90ZM11.79 18.14L11.79 10.88L11.79 10.88Q11.79 10.75 11.21 10.60L11.21 10.60L11.21 10.60Q10.64 10.45 10.64 10.33L10.64 10.33L10.64 10.33Q10.64 9.71 12.05 9.71L12.05 9.71L12.65 9.72L12.65 9.72Q12.77 9.72 12.97 9.90L12.97 9.90L12.97 9.90Q13.18 10.08 13.29 10.27L13.29 10.27L16.89 16.75L16.89 16.75Q17.96 15.03 20.35 10.99L20.35 10.99L20.35 11.00L20.35 11.00Q20.38 10.94 20.51 10.69L20.51 10.69L20.51 10.69Q20.64 10.45 20.72 10.33L20.72 10.33L20.72 10.33Q20.79 10.21 20.93 10.04L20.93 10.04L20.93 10.04Q21.20 9.72 21.59 9.72L21.59 9.72L22.09 9.71L22.09 9.71Q23.34 9.71 23.34 10.33L23.34 10.33L23.34 10.33Q23.34 10.54 22.75 10.61L22.75 10.61L22.75 10.61Q22.16 10.67 22.16 10.88L22.16 10.88L22.16 18.14L22.16 18.14Q22.16 18.27 22.46 18.36L22.46 18.36L22.46 18.36Q22.75 18.44 23.04 18.52L23.04 18.52L23.04 18.52Q23.34 18.59 23.34 18.70L23.34 18.70L23.34 18.70Q23.34 19.33 21.98 19.33L21.98 19.33L21.44 19.31L20.88 19.33L20.88 19.33Q19.54 19.33 19.54 18.70L19.54 18.70L19.54 18.70Q19.54 18.55 19.82 18.49L19.82 18.49L19.82 18.49Q20.11 18.43 20.40 18.37L20.40 18.37L20.40 18.37Q20.68 18.31 20.68 18.14L20.68 18.14L20.68 12.04L20.68 12.04Q20.55 12.27 19.50 14.18L19.50 14.18L19.50 14.18Q17.74 17.38 17.10 18.13L17.10 18.13L17.10 18.12L17.10 18.12Q16.91 18.31 16.75 18.31L16.75 18.31L16.75 18.31Q16.58 18.31 16.48 18.28L16.48 18.28L16.48 18.28Q16.38 18.25 16.30 18.17L16.30 18.17L16.30 18.17Q16.22 18.09 16.18 18.04L16.18 18.04L16.18 18.04Q16.14 17.99 16.07 17.86L16.07 17.86L16.07 17.86Q16.00 17.73 15.98 17.68L15.98 17.68L12.99 12.78L12.99 18.14L12.99 18.14Q12.99 18.27 13.28 18.36L13.28 18.36L13.28 18.36Q13.58 18.44 13.87 18.52L13.87 18.52L13.87 18.52Q14.17 18.59 14.17 18.70L14.17 18.70L14.17 18.70Q14.17 19.32 12.90 19.32L12.90 19.32L12.40 19.31L11.88 19.33L11.88 19.33Q10.64 19.33 10.64 18.70L10.64 18.70L10.64 18.70Q10.64 18.54 10.92 18.48L10.92 18.48L10.92 18.48Q11.21 18.43 11.50 18.37L11.50 18.37L11.50 18.37Q11.79 18.31 11.79 18.14L11.79 18.14Z"></path></g><!----><g data-v-423bf9ae="" id="df4aabc0-5cd1-4935-9767-3338d244a6bf" transform="matrix(1.3377329909227011,0,0,1.3377329909227011,11.438681035596808,-14.83664666093047)" stroke="none" fill="white"><path d="M65.488 65.37a3.24 3.24 0 0 1-3.243.518 3.256 3.256 0 0 1-1.24-.899 24.522 24.522 0 0 1-13.282 8.8c2.99-2.082 5.463-5.671 7.121-10.209h5.453c-.021-.096-.063-.182-.074-.279l-.285-2.165H55.63c.841-2.991 1.343-6.308 1.438-9.836h1.574l-.322-2.444h-1.252a44.145 44.145 0 0 0-.396-4.757c-.779.217-1.588.431-2.39.645.174 1.336.302 2.7.344 4.112h-8.61L45.52 51.3h9.105c-.104 3.541-.639 6.884-1.537 9.836H42.795v-5.401l-1.252.875c-.363.257-.772.399-1.192.486v4.04H30.058a34.681 34.681 0 0 1-1.047-4.6c-.267.108-.542.217-.804.329-.524.223-.992.445-1.49.668.219 1.238.477 2.451.798 3.603h-7.807v-.002a38.41 38.41 0 0 0-1.996 1.292 28.69 28.69 0 0 0-1.361 1.023c4.805 9.025 14.303 15.189 25.221 15.189 10.239 0 19.208-5.433 24.25-13.549l-.334.281zm-44.374-1.79h7.188c1.661 4.538 4.13 8.127 7.121 10.209A24.538 24.538 0 0 1 21.114 63.58zm19.237 9.686c-3.883-.645-7.27-4.322-9.421-9.686h9.421v9.686zm2.444-9.686h9.421c-2.149 5.361-5.54 9.041-9.421 9.686V63.58z"></path><path d="M87.363 24.459c-3.995-2.627-12.348-.773-21.615 2.803L49.466 11.36l-5.485.188L57.07 30.955c-5.385 2.476-10.719 5.232-15.396 7.779l-6.756-5.102-2.806.327 6.977 8.789.601 11.208 2.317-1.617 1.677-8.297c5.19-1.188 11.015-2.66 16.687-4.372l3.053 23.206 4.232-3.495 1.654-22.695c9.318-3.467 16.801-7.614 18.053-12.227z"></path><path d="M48.527 24.071l-1.348-1.999a28.669 28.669 0 0 0-5.61-.56c-14.262 0-26.082 10.519-28.192 24.199a86.52 86.52 0 0 1 5.021-3.501c.37-1.097.789-2.173 1.308-3.194h3.933a139.746 139.746 0 0 1 4.406-2.444h-6.933a24.535 24.535 0 0 1 14.31-10.209c-1.592 1.11-3.032 2.657-4.287 4.538.197-.063.393-.13.604-.153l2.806-.327.052-.001c1.697-1.917 3.647-3.184 5.752-3.532v6.794l1.615 1.221c.282-.151.549-.284.829-.435v-7.58c2.373.393 4.56 1.933 6.396 4.285l3.166-1.505-3.828-5.597z"></path><path d="M35.919 43.951l-4.397-5.538c-2.987 1.531-6.322 3.345-9.807 5.517-3.892 2.446-7.978 5.27-11.725 8.869-1.86 1.813-3.648 3.828-5.098 6.258-.717 1.217-1.339 2.549-1.767 3.991-.115.353-.192.733-.28 1.101-.047.183-.069.375-.104.563l-.102.681-.003.832.023 1.226c.107 1.477.501 3.049 1.285 4.42.766 1.383 1.916 2.446 3.06 3.128 2.327 1.363 4.509 1.586 6.388 1.697 3.773.115 6.669-.5 8.695-.902a80.261 80.261 0 0 0 1.612-.361c-5.88-.309-9.543-1.719-11.51-2.787a8.065 8.065 0 0 1-1.528-.977 5.157 5.157 0 0 1-.317-.263l.038-.003c-.121-.115-.262-.223-.364-.346-.886-1.059-.909-2.021-.595-3.401.054-.142.101-.271.14-.405l.239-.799.008-.023c.022-.125-.022.141-.016.106l.013-.028.022-.063.044-.121c.033-.079.051-.159.092-.242.079-.163.133-.326.228-.491a10.44 10.44 0 0 1 1.348-2.008c1.127-1.343 2.652-2.629 4.323-3.804 3.372-2.351 7.309-4.276 11.085-5.885 3.284-1.394 6.455-2.523 9.317-3.473l-.347-6.469z"></path></g><!----><g data-v-423bf9ae="" id="b1521300-84af-4cc3-b272-549fbd0e98c9" fill="white" transform="matrix(1.1726674918289695,0,0,1.1726674918289695,17.879855193391165,199.31437719830421)"><path d="M0.66 5.35L0.16 5.33L0.16 5.33Q0.28 4.17 0.36 3.08L0.36 3.08L8.44 3.08L8.44 3.08Q8.36 4.13 8.33 4.53L8.33 4.53L8.33 4.53Q8.29 5.26 8.27 5.32L8.27 5.32L7.77 5.30L7.77 5.30Q7.85 4.34 7.85 4.16L7.85 4.16L7.85 4.16Q7.85 3.88 7.71 3.79L7.71 3.79L7.71 3.79Q7.54 3.69 7.14 3.69L7.14 3.69L5.53 3.69L5.53 3.69Q5.02 3.69 4.90 3.79L4.90 3.79L4.90 3.79Q4.81 3.87 4.80 4.36L4.80 4.36L4.80 11.22L4.80 11.22Q4.80 11.66 4.94 11.76L4.94 11.76L4.94 11.76Q5.10 11.87 5.61 11.87L5.61 11.87L6.17 11.87L6.19 12.41L2.50 12.40L2.50 11.87L2.71 11.87L2.71 11.87Q3.38 11.87 3.53 11.79L3.53 11.79L3.53 11.79Q3.67 11.70 3.67 11.28L3.67 11.28L3.67 4.48L3.67 4.48Q3.67 3.92 3.57 3.80L3.57 3.80L3.57 3.80Q3.47 3.69 3.05 3.69L3.05 3.69L1.58 3.69L1.58 3.69Q1.39 3.69 1.33 3.71L1.33 3.71L1.33 3.71Q1.26 3.72 1.15 3.72L1.15 3.72L1.15 3.72Q1.12 3.72 1.00 3.79L1.00 3.79L1.00 3.79Q0.92 3.84 0.90 3.86L0.90 3.86L0.90 3.86Q0.87 3.88 0.83 3.99L0.83 3.99L0.83 3.99Q0.80 4.05 0.77 4.14L0.77 4.14L0.77 4.14Q0.75 4.21 0.72 4.36L0.72 4.36L0.72 4.36Q0.70 4.59 0.70 4.61L0.70 4.61L0.70 4.61Q0.70 4.80 0.68 4.95L0.68 4.95L0.68 4.95Q0.68 5.02 0.68 5.15L0.68 5.15L0.68 5.15Q0.67 5.29 0.66 5.35L0.66 5.35ZM16.52 3.64L16.13 3.64L16.14 3.08L19.36 3.08L19.36 3.08Q20.49 3.08 21.10 3.21L21.10 3.21L21.10 3.21Q21.74 3.37 22.20 3.75L22.20 3.75L22.20 3.75Q23.21 4.57 23.21 5.71L23.21 5.71L23.21 5.71Q23.21 6.43 22.74 7.04L22.74 7.04L22.74 7.04Q22.24 7.66 21.21 7.92L21.21 7.92L23.90 11.49L23.90 11.49Q24.21 11.87 24.50 11.87L24.50 11.87L25.10 11.87L25.13 12.41L23.10 12.41L20.10 8.10L19.93 8.10L19.93 8.10Q19.89 8.10 19.84 8.11L19.84 8.11L19.84 8.11Q19.78 8.11 19.77 8.11L19.77 8.11L19.77 8.11Q18.89 8.11 18.49 8.03L18.49 8.03L18.49 11.46L18.49 11.46Q18.49 11.76 18.63 11.81L18.63 11.81L18.63 11.81Q18.76 11.87 19.46 11.87L19.46 11.87L20.17 11.87L20.15 12.41L16.42 12.41L16.42 11.87L16.74 11.87L16.74 11.87Q17.21 11.87 17.27 11.81L17.27 11.81L17.27 11.81Q17.36 11.74 17.36 11.46L17.36 11.46L17.36 4.14L17.36 4.14Q17.36 3.82 17.17 3.73L17.17 3.73L17.17 3.73Q16.94 3.64 16.52 3.64L16.52 3.64ZM18.49 4.28L18.49 7.57L18.49 7.57Q18.68 7.70 19.39 7.71L19.39 7.71L19.39 7.71Q20.66 7.71 21.24 7.27L21.24 7.27L21.24 7.27Q21.83 6.84 21.83 5.92L21.83 5.92L21.83 5.92Q21.83 4.92 21.05 4.27L21.05 4.27L21.05 4.27Q20.30 3.64 18.92 3.64L18.92 3.64L18.92 3.64Q18.66 3.64 18.58 3.75L18.58 3.75L18.58 3.75Q18.50 3.84 18.49 4.28L18.49 4.28ZM32.89 12.41L32.88 11.87L33.05 11.87L33.05 11.87Q33.44 11.87 33.57 11.73L33.57 11.73L33.57 11.73Q33.69 11.57 34.03 10.83L34.03 10.83L34.94 8.82L35.51 7.53L35.51 7.53Q35.78 6.97 35.82 6.86L35.82 6.86L35.82 6.86Q35.89 6.70 35.94 6.60L35.94 6.60L35.94 6.60Q35.99 6.51 36.00 6.45L36.00 6.45L36.10 6.21L37.53 2.74L37.82 2.74L37.82 2.74Q38.68 4.98 40.87 10.25L40.87 10.25L40.87 10.25Q41.32 11.34 41.51 11.64L41.51 11.64L41.51 11.64Q41.64 11.87 42.08 11.87L42.08 11.87L42.29 11.87L42.28 12.41L39.09 12.41L39.10 11.87L39.52 11.87L39.52 11.87Q40.13 11.87 40.13 11.70L40.13 11.70L40.13 11.70Q40.13 11.63 40.00 11.27L40.00 11.27L38.96 8.72L35.71 8.72L34.60 11.18L34.60 11.18Q34.47 11.50 34.47 11.63L34.47 11.63L34.47 11.63Q34.47 11.79 34.56 11.83L34.56 11.83L34.56 11.83Q34.66 11.87 35.04 11.87L35.04 11.87L35.62 11.87L35.62 12.41L32.89 12.41ZM37.39 4.79L35.98 8.10L38.72 8.10L37.39 4.79ZM50.52 3.64L50.03 3.64L50.03 3.08L53.54 3.08L53.53 3.64L52.79 3.64L52.79 3.64Q52.45 3.64 52.45 3.82L52.45 3.82L52.45 3.82Q52.45 3.98 52.64 4.48L52.64 4.48L55.25 10.94L58.19 4.18L58.19 4.18Q58.26 3.97 58.26 3.92L58.26 3.92L58.26 3.92Q58.26 3.79 58.16 3.74L58.16 3.74L58.16 3.74Q58.06 3.68 57.92 3.65L57.92 3.65L57.92 3.65Q57.84 3.64 57.57 3.64L57.57 3.64L57.13 3.64L57.10 3.08L59.94 3.08L59.91 3.64L59.51 3.64L59.51 3.64Q59.19 3.64 59.03 3.83L59.03 3.83L59.03 3.83Q58.95 3.93 58.48 4.94L58.48 4.94L58.48 4.94Q58.27 5.46 58.20 5.57L58.20 5.57L55.07 12.63L54.83 12.63L51.58 4.73L51.58 4.73Q51.26 3.93 51.12 3.79L51.12 3.79L51.12 3.79Q50.96 3.63 50.52 3.64L50.52 3.64ZM67.69 3.64L67.68 3.08L74.89 3.08L74.89 3.08Q74.90 4.14 74.96 5.28L74.96 5.28L74.41 5.30L74.41 5.30Q74.40 4.66 74.34 4.25L74.34 4.25L74.34 4.25Q74.30 3.89 74.25 3.80L74.25 3.80L74.25 3.80Q74.19 3.71 74.07 3.69L74.07 3.69L74.07 3.69Q73.98 3.68 73.39 3.68L73.39 3.68L71.01 3.68L71.01 3.68Q70.46 3.68 70.32 3.77L70.32 3.77L70.32 3.77Q70.20 3.86 70.20 4.33L70.20 4.33L70.20 6.28L70.20 6.28Q70.20 6.69 70.25 6.76L70.25 6.76L70.25 6.76Q70.32 6.84 70.66 6.84L70.66 6.84L72.78 6.84L72.78 6.84Q73.14 6.84 73.22 6.73L73.22 6.73L73.22 6.73Q73.30 6.63 73.31 6.14L73.31 6.14L73.31 5.61L73.82 5.63L73.82 8.97L73.31 8.97L73.31 8.24L73.31 8.24Q73.31 7.66 73.23 7.57L73.23 7.57L73.23 7.57Q73.15 7.46 72.80 7.46L72.80 7.46L70.70 7.46L70.70 7.46Q70.37 7.46 70.28 7.54L70.28 7.54L70.28 7.54Q70.20 7.63 70.20 7.89L70.20 7.89L70.20 11.20L70.20 11.20Q70.20 11.57 70.28 11.67L70.28 11.67L70.28 11.67Q70.37 11.77 70.64 11.77L70.64 11.77L70.64 11.77Q73.56 11.75 74.09 11.69L74.09 11.69L74.09 11.69Q74.61 11.63 74.69 11.38L74.69 11.38L74.70 11.36L74.70 11.35L74.93 10.17L75.41 10.25L75.06 12.41L67.96 12.41L67.96 11.87L68.33 11.87L68.33 11.87Q68.89 11.87 68.97 11.80L68.97 11.80L68.97 11.80Q69.06 11.72 69.06 11.33L69.06 11.33L69.06 4.24L69.06 4.24Q69.06 3.82 68.91 3.73L68.91 3.73L68.91 3.73Q68.74 3.64 68.09 3.64L68.09 3.64L67.69 3.64ZM83.77 3.64L83.28 3.64L83.30 3.08L86.88 3.08L86.88 3.64L86.25 3.64L86.25 3.64Q85.87 3.64 85.76 3.72L85.76 3.72L85.76 3.72Q85.65 3.80 85.65 4.16L85.65 4.16L85.65 11.22L85.65 11.22Q85.65 11.57 85.73 11.67L85.73 11.67L85.73 11.67Q85.82 11.77 86.11 11.77L86.11 11.77L86.11 11.77Q88.98 11.74 89.64 11.63L89.64 11.63L89.64 11.63Q89.85 11.61 89.93 11.39L89.93 11.39L89.93 11.39Q90.02 11.17 90.21 10.05L90.21 10.05L90.71 10.08L90.24 12.41L83.48 12.41L83.47 11.87L83.86 11.87L83.86 11.87Q84.36 11.87 84.43 11.80L84.43 11.80L84.43 11.80Q84.51 11.72 84.52 11.33L84.52 11.33L84.52 4.09L84.52 4.09Q84.52 3.80 84.36 3.72L84.36 3.72L84.36 3.72Q84.21 3.64 83.77 3.64L83.77 3.64Z"></path></g></svg>