<svg data-v-fde0c5aa="" xmlns="http://www.w3.org/2000/svg" viewBox="0 0 300 300" class="icon"><!----><defs data-v-fde0c5aa=""><!----></defs><rect data-v-fde0c5aa="" fill="#927053" x="0" y="0" width="300px" height="300px" class="logo-background-square"></rect><!----><defs data-v-fde0c5aa=""><!----></defs><g data-v-fde0c5aa="" id="e807b710-7238-48b2-9a11-e34521b6749d" fill="#583936" stroke="none" transform="matrix(2.5965747282973286,0,0,2.5965747282973286,33.15542984824055,33.15673485129403)"><path d="M65.488 65.37a3.24 3.24 0 0 1-3.243.518 3.256 3.256 0 0 1-1.24-.899 24.522 24.522 0 0 1-13.282 8.8c2.99-2.082 5.463-5.671 7.121-10.209h5.453c-.021-.096-.063-.182-.074-.279l-.285-2.165H55.63c.841-2.991 1.343-6.308 1.438-9.836h1.574l-.322-2.444h-1.252a44.145 44.145 0 0 0-.396-4.757c-.779.217-1.588.431-2.39.645.174 1.336.302 2.7.344 4.112h-8.61L45.52 51.3h9.105c-.104 3.541-.639 6.884-1.537 9.836H42.795v-5.401l-1.252.875c-.363.257-.772.399-1.192.486v4.04H30.058a34.681 34.681 0 0 1-1.047-4.6c-.267.108-.542.217-.804.329-.524.223-.992.445-1.49.668.219 1.238.477 2.451.798 3.603h-7.807v-.002a38.41 38.41 0 0 0-1.996 1.292 28.69 28.69 0 0 0-1.361 1.023c4.805 9.025 14.303 15.189 25.221 15.189 10.239 0 19.208-5.433 24.25-13.549l-.334.281zm-44.374-1.79h7.188c1.661 4.538 4.13 8.127 7.121 10.209A24.538 24.538 0 0 1 21.114 63.58zm19.237 9.686c-3.883-.645-7.27-4.322-9.421-9.686h9.421v9.686zm2.444-9.686h9.421c-2.149 5.361-5.54 9.041-9.421 9.686V63.58z"></path><path d="M87.363 24.459c-3.995-2.627-12.348-.773-21.615 2.803L49.466 11.36l-5.485.188L57.07 30.955c-5.385 2.476-10.719 5.232-15.396 7.779l-6.756-5.102-2.806.327 6.977 8.789.601 11.208 2.317-1.617 1.677-8.297c5.19-1.188 11.015-2.66 16.687-4.372l3.053 23.206 4.232-3.495 1.654-22.695c9.318-3.467 16.801-7.614 18.053-12.227z"></path><path d="M48.527 24.071l-1.348-1.999a28.669 28.669 0 0 0-5.61-.56c-14.262 0-26.082 10.519-28.192 24.199a86.52 86.52 0 0 1 5.021-3.501c.37-1.097.789-2.173 1.308-3.194h3.933a139.746 139.746 0 0 1 4.406-2.444h-6.933a24.535 24.535 0 0 1 14.31-10.209c-1.592 1.11-3.032 2.657-4.287 4.538.197-.063.393-.13.604-.153l2.806-.327.052-.001c1.697-1.917 3.647-3.184 5.752-3.532v6.794l1.615 1.221c.282-.151.549-.284.829-.435v-7.58c2.373.393 4.56 1.933 6.396 4.285l3.166-1.505-3.828-5.597z"></path><path d="M35.919 43.951l-4.397-5.538c-2.987 1.531-6.322 3.345-9.807 5.517-3.892 2.446-7.978 5.27-11.725 8.869-1.86 1.813-3.648 3.828-5.098 6.258-.717 1.217-1.339 2.549-1.767 3.991-.115.353-.192.733-.28 1.101-.047.183-.069.375-.104.563l-.102.681-.003.832.023 1.226c.107 1.477.501 3.049 1.285 4.42.766 1.383 1.916 2.446 3.06 3.128 2.327 1.363 4.509 1.586 6.388 1.697 3.773.115 6.669-.5 8.695-.902a80.261 80.261 0 0 0 1.612-.361c-5.88-.309-9.543-1.719-11.51-2.787a8.065 8.065 0 0 1-1.528-.977 5.157 5.157 0 0 1-.317-.263l.038-.003c-.121-.115-.262-.223-.364-.346-.886-1.059-.909-2.021-.595-3.401.054-.142.101-.271.14-.405l.239-.799.008-.023c.022-.125-.022.141-.016.106l.013-.028.022-.063.044-.121c.033-.079.051-.159.092-.242.079-.163.133-.326.228-.491a10.44 10.44 0 0 1 1.348-2.008c1.127-1.343 2.652-2.629 4.323-3.804 3.372-2.351 7.309-4.276 11.085-5.885 3.284-1.394 6.455-2.523 9.317-3.473l-.347-6.469z"></path></g><!----></svg>